<?xml version="1.0" encoding="UTF-8" standalone="no"?>
<!DOCTYPE svg PUBLIC "-//W3C//DTD SVG 1.1//EN"
 "http://www.w3.org/Graphics/SVG/1.1/DTD/svg11.dtd">
<!-- Generated by graphviz version 2.38.0 (20140413.2041)
 -->
<!-- Title: Tree Pages: 1 -->
<svg width="510pt" height="433pt"
 viewBox="0.00 0.00 509.50 433.00" xmlns="http://www.w3.org/2000/svg" xmlns:xlink="http://www.w3.org/1999/xlink">
<g id="graph0" class="graph" transform="scale(1 1) rotate(0) translate(4 429)">
<title>Tree</title>
<polygon fill="white" stroke="none" points="-4,4 -4,-429 505.5,-429 505.5,4 -4,4"/>
<!-- 0 -->
<g id="node1" class="node"><title>0</title>
<path fill="#aed7f4" stroke="black" d="M254.5,-425C254.5,-425 96.5,-425 96.5,-425 90.5,-425 84.5,-419 84.5,-413 84.5,-413 84.5,-354 84.5,-354 84.5,-348 90.5,-342 96.5,-342 96.5,-342 254.5,-342 254.5,-342 260.5,-342 266.5,-348 266.5,-354 266.5,-354 266.5,-413 266.5,-413 266.5,-419 260.5,-425 254.5,-425"/>
<text text-anchor="middle" x="175.5" y="-409.8" font-family="Helvetica,sans-Serif" font-size="14.00">Age Cluster Labels &lt;= 0.0</text>
<text text-anchor="middle" x="175.5" y="-394.8" font-family="Helvetica,sans-Serif" font-size="14.00">entropy = 1.0</text>
<text text-anchor="middle" x="175.5" y="-379.8" font-family="Helvetica,sans-Serif" font-size="14.00">samples = 35</text>
<text text-anchor="middle" x="175.5" y="-364.8" font-family="Helvetica,sans-Serif" font-size="14.00">value = [13, 22]</text>
<text text-anchor="middle" x="175.5" y="-349.8" font-family="Helvetica,sans-Serif" font-size="14.00">class = 1</text>
</g>
<!-- 1 -->
<g id="node2" class="node"><title>1</title>
<path fill="#e58139" stroke="black" d="M135.5,-298.5C135.5,-298.5 59.5,-298.5 59.5,-298.5 53.5,-298.5 47.5,-292.5 47.5,-286.5 47.5,-286.5 47.5,-242.5 47.5,-242.5 47.5,-236.5 53.5,-230.5 59.5,-230.5 59.5,-230.5 135.5,-230.5 135.5,-230.5 141.5,-230.5 147.5,-236.5 147.5,-242.5 147.5,-242.5 147.5,-286.5 147.5,-286.5 147.5,-292.5 141.5,-298.5 135.5,-298.5"/>
<text text-anchor="middle" x="97.5" y="-283.3" font-family="Helvetica,sans-Serif" font-size="14.00">entropy = 0.0</text>
<text text-anchor="middle" x="97.5" y="-268.3" font-family="Helvetica,sans-Serif" font-size="14.00">samples = 4</text>
<text text-anchor="middle" x="97.5" y="-253.3" font-family="Helvetica,sans-Serif" font-size="14.00">value = [4, 0]</text>
<text text-anchor="middle" x="97.5" y="-238.3" font-family="Helvetica,sans-Serif" font-size="14.00">class = 0</text>
</g>
<!-- 0&#45;&gt;1 -->
<g id="edge1" class="edge"><title>0&#45;&gt;1</title>
<path fill="none" stroke="black" d="M148.438,-341.907C140.935,-330.652 132.779,-318.418 125.237,-307.106"/>
<polygon fill="black" stroke="black" points="128.071,-305.046 119.611,-298.667 122.246,-308.929 128.071,-305.046"/>
<text text-anchor="middle" x="114.708" y="-319.481" font-family="Helvetica,sans-Serif" font-size="14.00">True</text>
</g>
<!-- 2 -->
<g id="node3" class="node"><title>2</title>
<path fill="#8ac5f0" stroke="black" d="M329.5,-306C329.5,-306 177.5,-306 177.5,-306 171.5,-306 165.5,-300 165.5,-294 165.5,-294 165.5,-235 165.5,-235 165.5,-229 171.5,-223 177.5,-223 177.5,-223 329.5,-223 329.5,-223 335.5,-223 341.5,-229 341.5,-235 341.5,-235 341.5,-294 341.5,-294 341.5,-300 335.5,-306 329.5,-306"/>
<text text-anchor="middle" x="253.5" y="-290.8" font-family="Helvetica,sans-Serif" font-size="14.00">HH Cluster Labels &lt;= 2.0</text>
<text text-anchor="middle" x="253.5" y="-275.8" font-family="Helvetica,sans-Serif" font-size="14.00">entropy = 1.0</text>
<text text-anchor="middle" x="253.5" y="-260.8" font-family="Helvetica,sans-Serif" font-size="14.00">samples = 31</text>
<text text-anchor="middle" x="253.5" y="-245.8" font-family="Helvetica,sans-Serif" font-size="14.00">value = [9, 22]</text>
<text text-anchor="middle" x="253.5" y="-230.8" font-family="Helvetica,sans-Serif" font-size="14.00">class = 1</text>
</g>
<!-- 0&#45;&gt;2 -->
<g id="edge2" class="edge"><title>0&#45;&gt;2</title>
<path fill="none" stroke="black" d="M202.562,-341.907C208.43,-333.105 214.698,-323.703 220.759,-314.612"/>
<polygon fill="black" stroke="black" points="223.851,-316.283 226.486,-306.021 218.027,-312.4 223.851,-316.283"/>
<text text-anchor="middle" x="231.389" y="-326.835" font-family="Helvetica,sans-Serif" font-size="14.00">False</text>
</g>
<!-- 3 -->
<g id="node4" class="node"><title>3</title>
<path fill="#65b3eb" stroke="black" d="M231.5,-187C231.5,-187 73.5,-187 73.5,-187 67.5,-187 61.5,-181 61.5,-175 61.5,-175 61.5,-116 61.5,-116 61.5,-110 67.5,-104 73.5,-104 73.5,-104 231.5,-104 231.5,-104 237.5,-104 243.5,-110 243.5,-116 243.5,-116 243.5,-175 243.5,-175 243.5,-181 237.5,-187 231.5,-187"/>
<text text-anchor="middle" x="152.5" y="-171.8" font-family="Helvetica,sans-Serif" font-size="14.00">Age Cluster Labels &lt;= 4.0</text>
<text text-anchor="middle" x="152.5" y="-156.8" font-family="Helvetica,sans-Serif" font-size="14.00">entropy = 1.0</text>
<text text-anchor="middle" x="152.5" y="-141.8" font-family="Helvetica,sans-Serif" font-size="14.00">samples = 22</text>
<text text-anchor="middle" x="152.5" y="-126.8" font-family="Helvetica,sans-Serif" font-size="14.00">value = [4, 18]</text>
<text text-anchor="middle" x="152.5" y="-111.8" font-family="Helvetica,sans-Serif" font-size="14.00">class = 1</text>
</g>
<!-- 2&#45;&gt;3 -->
<g id="edge3" class="edge"><title>2&#45;&gt;3</title>
<path fill="none" stroke="black" d="M218.459,-222.907C210.624,-213.832 202.241,-204.121 194.169,-194.769"/>
<polygon fill="black" stroke="black" points="196.663,-192.303 187.48,-187.021 191.365,-196.878 196.663,-192.303"/>
</g>
<!-- 6 -->
<g id="node7" class="node"><title>6</title>
<path fill="#fae6d7" stroke="black" d="M435.5,-187C435.5,-187 273.5,-187 273.5,-187 267.5,-187 261.5,-181 261.5,-175 261.5,-175 261.5,-116 261.5,-116 261.5,-110 267.5,-104 273.5,-104 273.5,-104 435.5,-104 435.5,-104 441.5,-104 447.5,-110 447.5,-116 447.5,-116 447.5,-175 447.5,-175 447.5,-181 441.5,-187 435.5,-187"/>
<text text-anchor="middle" x="354.5" y="-171.8" font-family="Helvetica,sans-Serif" font-size="14.00">Area Cluster Labels &lt;= 3.0</text>
<text text-anchor="middle" x="354.5" y="-156.8" font-family="Helvetica,sans-Serif" font-size="14.00">entropy = 1.0</text>
<text text-anchor="middle" x="354.5" y="-141.8" font-family="Helvetica,sans-Serif" font-size="14.00">samples = 9</text>
<text text-anchor="middle" x="354.5" y="-126.8" font-family="Helvetica,sans-Serif" font-size="14.00">value = [5, 4]</text>
<text text-anchor="middle" x="354.5" y="-111.8" font-family="Helvetica,sans-Serif" font-size="14.00">class = 0</text>
</g>
<!-- 2&#45;&gt;6 -->
<g id="edge6" class="edge"><title>2&#45;&gt;6</title>
<path fill="none" stroke="black" d="M288.541,-222.907C296.376,-213.832 304.759,-204.121 312.831,-194.769"/>
<polygon fill="black" stroke="black" points="315.635,-196.878 319.52,-187.021 310.337,-192.303 315.635,-196.878"/>
</g>
<!-- 4 -->
<g id="node5" class="node"><title>4</title>
<path fill="#81c1ee" stroke="black" d="M93,-68C93,-68 12,-68 12,-68 6,-68 0,-62 0,-56 0,-56 0,-12 0,-12 0,-6 6,-0 12,-0 12,-0 93,-0 93,-0 99,-0 105,-6 105,-12 105,-12 105,-56 105,-56 105,-62 99,-68 93,-68"/>
<text text-anchor="middle" x="52.5" y="-52.8" font-family="Helvetica,sans-Serif" font-size="14.00">entropy = 1.0</text>
<text text-anchor="middle" x="52.5" y="-37.8" font-family="Helvetica,sans-Serif" font-size="14.00">samples = 15</text>
<text text-anchor="middle" x="52.5" y="-22.8" font-family="Helvetica,sans-Serif" font-size="14.00">value = [4, 11]</text>
<text text-anchor="middle" x="52.5" y="-7.8" font-family="Helvetica,sans-Serif" font-size="14.00">class = 1</text>
</g>
<!-- 3&#45;&gt;4 -->
<g id="edge4" class="edge"><title>3&#45;&gt;4</title>
<path fill="none" stroke="black" d="M115.264,-103.726C106.934,-94.6054 98.0982,-84.93 89.7674,-75.8078"/>
<polygon fill="black" stroke="black" points="92.2386,-73.3235 82.9106,-68.2996 87.0697,-78.044 92.2386,-73.3235"/>
</g>
<!-- 5 -->
<g id="node6" class="node"><title>5</title>
<path fill="#399de5" stroke="black" d="M211.5,-68C211.5,-68 135.5,-68 135.5,-68 129.5,-68 123.5,-62 123.5,-56 123.5,-56 123.5,-12 123.5,-12 123.5,-6 129.5,-0 135.5,-0 135.5,-0 211.5,-0 211.5,-0 217.5,-0 223.5,-6 223.5,-12 223.5,-12 223.5,-56 223.5,-56 223.5,-62 217.5,-68 211.5,-68"/>
<text text-anchor="middle" x="173.5" y="-52.8" font-family="Helvetica,sans-Serif" font-size="14.00">entropy = 0.0</text>
<text text-anchor="middle" x="173.5" y="-37.8" font-family="Helvetica,sans-Serif" font-size="14.00">samples = 7</text>
<text text-anchor="middle" x="173.5" y="-22.8" font-family="Helvetica,sans-Serif" font-size="14.00">value = [0, 7]</text>
<text text-anchor="middle" x="173.5" y="-7.8" font-family="Helvetica,sans-Serif" font-size="14.00">class = 1</text>
</g>
<!-- 3&#45;&gt;5 -->
<g id="edge5" class="edge"><title>3&#45;&gt;5</title>
<path fill="none" stroke="black" d="M160.32,-103.726C161.911,-95.4263 163.591,-86.6671 165.199,-78.2834"/>
<polygon fill="black" stroke="black" points="168.668,-78.7799 167.114,-68.2996 161.793,-77.4614 168.668,-78.7799"/>
</g>
<!-- 7 -->
<g id="node8" class="node"><title>7</title>
<path fill="#399de5" stroke="black" d="M371.5,-68C371.5,-68 295.5,-68 295.5,-68 289.5,-68 283.5,-62 283.5,-56 283.5,-56 283.5,-12 283.5,-12 283.5,-6 289.5,-0 295.5,-0 295.5,-0 371.5,-0 371.5,-0 377.5,-0 383.5,-6 383.5,-12 383.5,-12 383.5,-56 383.5,-56 383.5,-62 377.5,-68 371.5,-68"/>
<text text-anchor="middle" x="333.5" y="-52.8" font-family="Helvetica,sans-Serif" font-size="14.00">entropy = 0.0</text>
<text text-anchor="middle" x="333.5" y="-37.8" font-family="Helvetica,sans-Serif" font-size="14.00">samples = 2</text>
<text text-anchor="middle" x="333.5" y="-22.8" font-family="Helvetica,sans-Serif" font-size="14.00">value = [0, 2]</text>
<text text-anchor="middle" x="333.5" y="-7.8" font-family="Helvetica,sans-Serif" font-size="14.00">class = 1</text>
</g>
<!-- 6&#45;&gt;7 -->
<g id="edge7" class="edge"><title>6&#45;&gt;7</title>
<path fill="none" stroke="black" d="M346.68,-103.726C345.089,-95.4263 343.409,-86.6671 341.801,-78.2834"/>
<polygon fill="black" stroke="black" points="345.207,-77.4614 339.886,-68.2996 338.332,-78.7799 345.207,-77.4614"/>
</g>
<!-- 8 -->
<g id="node9" class="node"><title>8</title>
<path fill="#efb388" stroke="black" d="M489.5,-68C489.5,-68 413.5,-68 413.5,-68 407.5,-68 401.5,-62 401.5,-56 401.5,-56 401.5,-12 401.5,-12 401.5,-6 407.5,-0 413.5,-0 413.5,-0 489.5,-0 489.5,-0 495.5,-0 501.5,-6 501.5,-12 501.5,-12 501.5,-56 501.5,-56 501.5,-62 495.5,-68 489.5,-68"/>
<text text-anchor="middle" x="451.5" y="-52.8" font-family="Helvetica,sans-Serif" font-size="14.00">entropy = 1.0</text>
<text text-anchor="middle" x="451.5" y="-37.8" font-family="Helvetica,sans-Serif" font-size="14.00">samples = 7</text>
<text text-anchor="middle" x="451.5" y="-22.8" font-family="Helvetica,sans-Serif" font-size="14.00">value = [5, 2]</text>
<text text-anchor="middle" x="451.5" y="-7.8" font-family="Helvetica,sans-Serif" font-size="14.00">class = 0</text>
</g>
<!-- 6&#45;&gt;8 -->
<g id="edge8" class="edge"><title>6&#45;&gt;8</title>
<path fill="none" stroke="black" d="M390.619,-103.726C398.699,-94.6054 407.27,-84.93 415.351,-75.8078"/>
<polygon fill="black" stroke="black" points="417.991,-78.1058 422.002,-68.2996 412.751,-73.4642 417.991,-78.1058"/>
</g>
</g>
</svg>
